<svg width="45" height="45" fill="none" xmlns="http://www.w3.org/2000/svg"><path d="M42.862 25.72h-2.151v-2.137h-2.138V21.43h-2.137v-2.137h-2.152v-2.138h-2.137v2.138h-2.152v2.137h-2.137v2.152h-4.29V21.43h-2.137v2.152h-4.289V21.43h-2.137v-2.137h-2.152v-2.138h-2.137v2.138H8.578v2.137H6.427v2.152H4.289v2.137H2.138v2.138H0v4.289h2.138v8.578h6.44v-8.578H6.427v6.426H4.289V27.858h2.138V25.72h2.151v-2.137h2.138V21.43h2.137v2.152h2.152v2.137h2.137v2.138h-2.137v2.151H8.578v2.138h2.138v4.289h2.137V45h6.44v-8.564h-2.15v6.426h-2.138V32.147h2.137v-2.138h2.152v-2.151h2.137V25.72h2.138v2.138h2.151v2.151h2.138v2.138h2.137v10.715h-2.137v-6.426H25.72V45h6.427v-8.564h2.137v-4.29h2.152V30.01h-6.44v-2.151h-2.138V25.72h2.137v-2.137h2.152V21.43h2.137v2.152h2.152v2.137h2.137v2.138h2.138v10.715h-2.138v-6.426h-2.137v8.578h6.426v-8.578H45v-4.29h-2.138V25.72z" fill="#3B2027"/><path d="M19.294 34.299h6.427v2.137h-6.427V34.3zm0-34.299v2.152h-2.152v2.137h-2.137v6.427h2.137v4.289h2.152v2.151h2.137v2.138h2.138v-2.138h2.151v-2.151h2.138v-4.29h2.137V4.29h-2.137V2.152H25.72V0h-6.426zm6.426 8.578h-2.15v2.138h-2.14V8.578h-2.137V6.441h2.137V4.289h2.138v2.152h2.151v2.137z" fill="#3B2027"/></svg>