<svg width="45" height="45" fill="none" xmlns="http://www.w3.org/2000/svg"><path d="M42.862 10.716H45v2.137h-2.138v-2.137zm-4.289 10.716v2.137h-4.275v2.152h4.275v12.853H30.01v2.137h8.564v2.152H45V21.432h-6.427z" fill="#3B2027"/><path d="M40.725 12.853h2.138v2.152h-2.138v-2.152zm-2.151-2.137h2.151v2.137h-2.151v-2.137zm-2.138 2.137h2.138v2.152h-2.138v-2.152zm0-10.702h2.138V4.29h-2.138V2.15zm-2.138 8.565h2.138v2.137h-2.138v-2.137zm-2.151 10.716h2.151v2.137h-2.151v-2.137zm-2.137-2.138h2.137v2.137h-2.138v-2.137zm0 12.853h-2.152v4.289h-4.275v4.275h2.138v-2.138h4.289v-6.426zm-4.29-2.137h2.138v2.137H25.72V30.01zm0-25.72h2.138v2.137H25.72V4.289zm-2.137 23.568h2.138v2.151h-2.138v-2.151zm0-4.29h2.138v2.152h-2.138v-2.152zm-2.151-6.426h8.578v2.152h-8.578v-2.152zm2.151-10.715h2.138v2.151h-2.138V6.427z" fill="#3B2027"/><path d="M23.583 2.151h2.138V4.29h-2.138V2.15zm-2.151 32.133h2.151v2.152h-2.151v-2.152zm0-8.564h2.151v2.138h-2.151v-2.137zm0-21.43h2.151v2.137h-2.151V4.289zm-2.138 38.572h-6.426V45h8.564v-2.138h2.151v-2.151h-4.289v2.151zm0-23.568h2.137v2.137h-2.137v-2.137zm-2.152 19.28h2.152v2.137h-2.152v-2.137zm0-10.716h4.29v2.151h-4.29v-2.151zm0-6.426h2.152v2.137h-2.152v-2.137zm-2.138-4.29h4.29v2.152h-4.29v-2.152zm0 19.294h2.138v2.137h-2.138v-2.137zm0-12.868h2.138v4.29h-2.138v-4.29zm0-14.99h2.138v2.137h-2.138V8.578zm-2.136 10.716h2.137v2.137h-2.137v-2.137zM10.715 40.71h2.152v2.152h-2.152v-2.151zm0-19.278h2.152v2.137h-2.152v-2.137z" fill="#3B2027"/><path d="M6.44 38.574V25.72h4.276v-2.152H6.44v-2.137H0v21.43h6.44v-2.15h4.276v-2.138H6.44zM8.578 0h2.137v2.152H8.578V0zM6.44 17.142v-2.137h2.138v-2.152H6.44v-2.137H4.29v2.137H2.15v2.152h2.14v2.137h2.15z" fill="#3B2027"/></svg>