<svg width="45" height="45" viewBox="0 0 45 45" fill="none" xmlns="http://www.w3.org/2000/svg">
<path d="M42.8625 25.7203H40.7109V23.5828H38.5734V21.4312H36.4359V19.2937H34.2844V17.1562H32.1469V19.2937H29.9953V21.4312H27.8578V23.5828H23.5688V21.4312H21.4312V23.5828H17.1422V21.4312H15.0047V19.2937H12.8531V17.1562H10.7156V19.2937H8.57812V21.4312H6.42656V23.5828H4.28906V25.7203H2.1375V27.8578H0V32.1469H2.1375V40.725H8.57812V32.1469H6.42656V38.5734H4.28906V27.8578H6.42656V25.7203H8.57812V23.5828H10.7156V21.4312H12.8531V23.5828H15.0047V25.7203H17.1422V27.8578H15.0047V30.0094H8.57812V32.1469H10.7156V36.4359H12.8531V45H19.2938V36.4359H17.1422V42.8625H15.0047V32.1469H17.1422V30.0094H19.2938V27.8578H21.4312V25.7203H23.5688V27.8578H25.7203V30.0094H27.8578V32.1469H29.9953V42.8625H27.8578V36.4359H25.7203V45H32.1469V36.4359H34.2844V32.1469H36.4359V30.0094H29.9953V27.8578H27.8578V25.7203H29.9953V23.5828H32.1469V21.4312H34.2844V23.5828H36.4359V25.7203H38.5734V27.8578H40.7109V38.5734H38.5734V32.1469H36.4359V40.725H42.8625V32.1469H45V27.8578H42.8625V25.7203Z" fill="#3B2027"/>
<path d="M19.2939 34.2986H25.7205V36.4361H19.2939V34.2986Z" fill="#3B2027"/>
<path d="M19.2937 0V2.15156H17.1421V4.28906H15.0046V10.7156H17.1421V15.0047H19.2937V17.1562H21.4312V19.2937H23.5687V17.1562H25.7203V15.0047H27.8578V10.7156H29.9953V4.28906H27.8578V2.15156H25.7203V0H19.2937ZM25.7203 8.57812H23.5687V10.7156H21.4312V8.57812H19.2937V6.44062H21.4312V4.28906H23.5687V6.44062H25.7203V8.57812Z" fill="#3B2027"/>
</svg>
