<svg width="40" height="48" fill="none" xmlns="http://www.w3.org/2000/svg"><path d="M11.764 14.11h2.362v2.347h-2.362v-2.346zM9.417 42.354V18.819h2.347v-2.362H9.417v-2.355H0v32.93h9.417v-2.347h4.716v-2.331H9.418zM7.055 23.52H4.716v-4.694h2.347l-.008 4.694zm7.071-11.756h2.347v2.346h-2.347v-2.346zm2.346-9.418h2.347v9.418h-2.347V2.346zm2.347 16.473h2.362v2.346h-2.362V18.82zm0-18.819h4.708v2.347H18.82V0z" fill="#3B2027"/><path d="M21.181 16.457h2.347v2.362H21.18v-2.362zm0 9.417h2.347v4.708H21.18v-4.708zm0 7.056h2.347v4.708H21.18v-4.709zm2.347-30.584h2.346v2.347h-2.346V2.346zm0 11.764h2.346v2.347h-2.346v-2.346zm2.346-9.417h2.362v9.417h-2.362V4.693zm0 11.764h11.764v2.362H25.874v-2.362zm2.362 25.889h-2.361v2.347H14.126v2.347h18.82v-2.347h-4.71v-2.347z" fill="#3B2027"/><path d="M23.528 37.638v4.709h2.346v-2.363h9.417v2.362h2.347v-4.708h-14.11z" fill="#3B2027"/><path d="M32.945 42.346h2.346v2.347h-2.346v-2.347zm4.693-18.834H25.874v-4.693h-2.346v7.055h14.11v4.709h-14.11v2.346h14.11v4.709H40v-18.82h-2.362v4.694z" fill="#3B2027"/></svg>