<svg width="45" height="45" viewBox="0 0 45 45" fill="none" xmlns="http://www.w3.org/2000/svg">
<path d="M42.8623 10.7156H44.9998V12.8531H42.8623V10.7156Z" fill="#3B2027"/>
<path d="M38.5733 21.4316V23.5691H34.2983V25.7207H38.5733V38.5738H30.0093V40.7113H38.5733V42.8629H44.9999V21.4316H38.5733Z" fill="#3B2027"/>
<path d="M40.7251 12.8533H42.8626V15.0048H40.7251V12.8533Z" fill="#3B2027"/>
<path d="M38.5737 10.7156H40.7253V12.8531H38.5737V10.7156Z" fill="#3B2027"/>
<path d="M36.436 12.8533H38.5735V15.0048H36.436V12.8533Z" fill="#3B2027"/>
<path d="M36.436 2.15137H38.5735V4.28887H36.436V2.15137Z" fill="#3B2027"/>
<path d="M34.2983 10.7156H36.4358V12.8531H34.2983V10.7156Z" fill="#3B2027"/>
<path d="M32.147 21.4316H34.2985V23.5691H32.147V21.4316Z" fill="#3B2027"/>
<path d="M30.0093 19.2939H32.1468V21.4314H30.0093V19.2939Z" fill="#3B2027"/>
<path d="M30.0096 32.1467H27.858V36.4358H23.583V40.7108H25.7205V38.5733H30.0096V32.1467Z" fill="#3B2027"/>
<path d="M25.7202 30.0095H27.8577V32.147H25.7202V30.0095Z" fill="#3B2027"/>
<path d="M25.7202 4.28906H27.8577V6.42656H25.7202V4.28906Z" fill="#3B2027"/>
<path d="M23.583 27.8579H25.7205V30.0095H23.583V27.8579Z" fill="#3B2027"/>
<path d="M23.583 23.5684H25.7205V25.7199H23.583V23.5684Z" fill="#3B2027"/>
<path d="M21.4316 17.1421H30.0098V19.2937H21.4316V17.1421Z" fill="#3B2027"/>
<path d="M23.583 6.42651H25.7205V8.57808H23.583V6.42651Z" fill="#3B2027"/>
<path d="M23.583 2.15137H25.7205V4.28887H23.583V2.15137Z" fill="#3B2027"/>
<path d="M21.4316 34.2844H23.5832V36.436H21.4316V34.2844Z" fill="#3B2027"/>
<path d="M21.4316 25.7205H23.5832V27.858H21.4316V25.7205Z" fill="#3B2027"/>
<path d="M21.4316 4.28906H23.5832V6.42656H21.4316V4.28906Z" fill="#3B2027"/>
<path d="M19.2942 42.8625H12.8677V45H21.4317V42.8625H23.5833V40.7109H19.2942V42.8625Z" fill="#3B2027"/>
<path d="M19.2939 19.2939H21.4314V21.4314H19.2939V19.2939Z" fill="#3B2027"/>
<path d="M17.1421 38.5735H19.2937V40.711H17.1421V38.5735Z" fill="#3B2027"/>
<path d="M17.1421 27.8579H21.4312V30.0095H17.1421V27.8579Z" fill="#3B2027"/>
<path d="M17.1421 21.4316H19.2937V23.5691H17.1421V21.4316Z" fill="#3B2027"/>
<path d="M15.0044 17.1421H19.2935V19.2937H15.0044V17.1421Z" fill="#3B2027"/>
<path d="M15.0044 36.4358H17.1419V38.5733H15.0044V36.4358Z" fill="#3B2027"/>
<path d="M15.0044 23.5684H17.1419V27.8574H15.0044V23.5684Z" fill="#3B2027"/>
<path d="M15.0044 8.57788H17.1419V10.7154H15.0044V8.57788Z" fill="#3B2027"/>
<path d="M12.8677 19.2939H15.0052V21.4314H12.8677V19.2939Z" fill="#3B2027"/>
<path d="M10.7153 40.7109H12.8669V42.8625H10.7153V40.7109Z" fill="#3B2027"/>
<path d="M10.7153 21.4316H12.8669V23.5691H10.7153V21.4316Z" fill="#3B2027"/>
<path d="M6.44062 38.5738V25.7207H10.7156V23.5691H6.44062V21.4316H0V42.8629H6.44062V40.7113H10.7156V38.5738H6.44062Z" fill="#3B2027"/>
<path d="M8.57764 0H10.7151V2.15156H8.57764V0Z" fill="#3B2027"/>
<path d="M6.44043 17.1421V15.0046H8.57793V12.8531H6.44043V10.7156H4.28887V12.8531H2.15137V15.0046H4.28887V17.1421H6.44043Z" fill="#3B2027"/>
</svg>
