<svg width="45" height="43" fill="none" xmlns="http://www.w3.org/2000/svg"><path d="M42.49 12.5H45v17.505h-2.51V12.501zm-2.494 17.506h2.494v2.493h-2.494v-2.493zm0-19.999h2.494v2.494h-2.494v-2.494zM34.992 12.5h5.004v2.494h-5.004v-2.493zm0 19.999h5.004v2.51h-5.004v-2.51zm2.511-22.491v-2.51h-2.51V5.003h-4.987v2.493h-2.51v2.51h2.51V12.5h4.987v-2.493h2.51z" fill="#3B2027"/><path d="M30.006 14.994h4.987v2.51h-4.987v-2.51zm0 20.015h4.987v2.494h-4.987v-2.494zm-5.004 7.497v-2.51h5.003v-2.493h-5.003V19.998h-5.004v2.51h2.494v17.488h-2.494v2.51h5.004zm0-25.002h5.004v2.494h-5.004v-2.494zm0-2.51h2.493v-2.493h-2.493v-2.494h-5.004v2.494h-2.494v2.493h2.494v2.51h5.004v-2.51zM19.998 0v2.51h-2.494v2.494h2.494v2.493h5.004V5.004h2.493V2.51h-2.493V0h-5.004zm-5.004 37.503h5.004v2.493h-5.004v-2.493zm0-19.999h5.004v2.494h-5.004v-2.494zm-4.987 17.505h4.987v2.494h-4.987v-2.494zm4.988-25.001h2.51v-2.51h-2.51V5.003h-4.988v2.493h-2.51v2.51h2.51V12.5h4.988v-2.493zm-4.988 4.986h4.987v2.51h-4.987v-2.51zM5.004 32.499h5.004v2.51H5.004v-2.51z" fill="#3B2027"/><path d="M5.004 12.5h5.004v2.494H5.004v-2.493zm-2.51 17.506h2.51v2.493h-2.51v-2.493zm0-19.999h2.51v2.494h-2.51v-2.494z" fill="#3B2027"/><path d="M0 12.5h2.494v17.505H0V12.501z" fill="#3B2027"/></svg>