<svg width="45" height="53" fill="none" xmlns="http://www.w3.org/2000/svg"><path d="M30.005 12.501H32.5v2.494h2.493v2.493h2.51v-2.493h2.494V12.5h2.51V9.99H45V4.987h-2.494V2.494h-2.51v2.493h-2.494v2.51h-2.51v-2.51H32.5V2.494h-2.494v2.493h-2.51v5.004h2.51v2.51zM19.998 24.985h2.51v15.011h-2.51v-15.01zm-2.494-2.493h2.494v2.493h-2.494v-2.493zm.001 7.497h-2.51v5.004H7.497v-5.004H5.004v10.007h-2.51v2.494h2.51v10.007h5.003v-7.513h2.494v7.513h5.004V42.49h2.493v-2.494h-2.493V29.99zm-2.511-9.991h2.51v2.494h-2.51v-2.494zm0-5.004h2.51v2.494h-2.51v-2.494zm-4.987 7.498h2.494v7.497h-2.494v-7.497zm-2.51-5.004h7.498v2.51H7.497v-2.51zm-2.494 2.51h2.494v2.494H5.003v-2.494zm0-5.004h2.494v2.494H5.003v-2.494zm-2.509 7.498h2.51v2.493h-2.51v-2.493z" fill="#3B2027"/><path d="M7.497 9.99V7.498h7.498v2.494h2.51v5.004h2.493V4.987h-2.493V2.494h-2.51V0H7.497v2.494H5.004v2.493h-2.51v10.008h2.51V9.99h2.493zM0 24.985h2.494v15.011H0v-15.01z" fill="#3B2027"/></svg>