<svg width="45" height="45" viewBox="0 0 45 45" fill="none" xmlns="http://www.w3.org/2000/svg">
<path d="M40.7109 12.8533H45V15.0048H40.7109V12.8533Z" fill="#3B2027"/>
<path d="M40.7109 29.9954H45V32.1469H40.7109V29.9954Z" fill="#3B2027"/>
<path d="M40.7109 21.4314H45V23.5689H40.7109V21.4314Z" fill="#3B2027"/>
<path d="M38.5732 38.5735H40.7107V40.711H38.5732V38.5735Z" fill="#3B2027"/>
<path d="M38.5732 4.28906H40.7107V6.42656H38.5732V4.28906Z" fill="#3B2027"/>
<path d="M36.4355 36.4219H38.573V38.5734H36.4355V36.4219Z" fill="#3B2027"/>
<path d="M36.4355 17.1423H38.573V27.858H36.4355V17.1423Z" fill="#3B2027"/>
<path d="M36.4355 6.42651H38.573V8.56401H36.4355V6.42651Z" fill="#3B2027"/>
<path d="M34.2842 27.8577H36.4357V32.1467H34.2842V27.8577Z" fill="#3B2027"/>
<path d="M34.2842 12.8533H36.4357V17.1423H34.2842V12.8533Z" fill="#3B2027"/>
<path d="M32.1465 10.7156H34.284V12.8531H32.1465V10.7156Z" fill="#3B2027"/>
<path d="M30.0098 40.7109H32.1473V45H30.0098V40.7109Z" fill="#3B2027"/>
<path d="M30.009 34.2842H27.8574V36.4217H32.1465V34.2842H34.284V32.1467H30.009V34.2842Z" fill="#3B2027"/>
<path d="M30.0098 0H32.1473V4.28906H30.0098V0Z" fill="#3B2027"/>
<path d="M27.8574 29.9954H30.009V32.1469H27.8574V29.9954Z" fill="#3B2027"/>
<path d="M27.8574 8.56421H32.1465V10.7158H27.8574V8.56421Z" fill="#3B2027"/>
<path d="M17.1426 36.4219H27.8582V38.5734H17.1426V36.4219Z" fill="#3B2027"/>
<path d="M21.4316 40.7109H23.5691V45H21.4316V40.7109Z" fill="#3B2027"/>
<path d="M21.4316 0H23.5691V4.28906H21.4316V0Z" fill="#3B2027"/>
<path d="M17.1426 27.8577H27.8582V29.9952H17.1426V27.8577Z" fill="#3B2027"/>
<path d="M17.1426 6.42651H27.8582V8.56401H17.1426V6.42651Z" fill="#3B2027"/>
<path d="M15.0049 34.2842V32.1467H10.7158V34.2842H12.8674V36.4217H17.1424V34.2842H15.0049Z" fill="#3B2027"/>
<path d="M15.0049 29.9954H17.1424V32.1469H15.0049V29.9954Z" fill="#3B2027"/>
<path d="M17.1424 19.2798H19.2939V17.1423H25.7205V19.2798H27.858V27.858H30.0096V15.0048H27.858V12.8533H17.1424V15.0048H15.0049V27.858H17.1424V19.2798Z" fill="#3B2027"/>
<path d="M12.8672 8.56421H17.1422V10.7158H12.8672V8.56421Z" fill="#3B2027"/>
<path d="M12.8672 40.7109H15.0047V45H12.8672V40.7109Z" fill="#3B2027"/>
<path d="M12.8672 0H15.0047V4.28906H12.8672V0Z" fill="#3B2027"/>
<path d="M10.7158 10.7156H12.8674V12.8531H10.7158V10.7156Z" fill="#3B2027"/>
<path d="M8.57812 27.8577H10.7156V32.1467H8.57812V27.8577Z" fill="#3B2027"/>
<path d="M8.57812 12.8533H10.7156V17.1423H8.57812V12.8533Z" fill="#3B2027"/>
<path d="M6.42676 36.4219H8.57832V38.5734H6.42676V36.4219Z" fill="#3B2027"/>
<path d="M6.42676 17.1423H8.57832V27.858H6.42676V17.1423Z" fill="#3B2027"/>
<path d="M6.42676 6.42651H8.57832V8.56401H6.42676V6.42651Z" fill="#3B2027"/>
<path d="M4.28906 38.5735H6.42656V40.711H4.28906V38.5735Z" fill="#3B2027"/>
<path d="M4.28906 4.28906H6.42656V6.42656H4.28906V4.28906Z" fill="#3B2027"/>
<path d="M0 29.9954H4.28906V32.1469H0V29.9954Z" fill="#3B2027"/>
<path d="M0 21.4314H4.28906V23.5689H0V21.4314Z" fill="#3B2027"/>
<path d="M0 12.8533H4.28906V15.0048H0V12.8533Z" fill="#3B2027"/>
</svg>
