<svg width="40" height="48" viewBox="0 0 40 48" fill="none" xmlns="http://www.w3.org/2000/svg">
<path d="M11.7637 14.1106H14.1257V16.4572H11.7637V14.1106Z" fill="#3B2027"/>
<path d="M9.41716 42.3538V18.8186H11.7637V16.4566H9.41716V14.1023H0V47.0315H9.41716V44.6849H14.1335V42.3538H9.41716ZM7.05515 23.5195H4.7163V18.8263H7.06287L7.05515 23.5195Z" fill="#3B2027"/>
<path d="M14.1262 11.7637H16.4728V14.1102H14.1262V11.7637Z" fill="#3B2027"/>
<path d="M16.4722 2.34644H18.8187V11.7636H16.4722V2.34644Z" fill="#3B2027"/>
<path d="M18.8188 18.8188H21.1809V21.1654H18.8188V18.8188Z" fill="#3B2027"/>
<path d="M18.8188 0H23.5274V2.34657H18.8188V0Z" fill="#3B2027"/>
<path d="M21.1812 16.4568H23.5277V18.8188H21.1812V16.4568Z" fill="#3B2027"/>
<path d="M21.1812 25.8738H23.5277V30.5824H21.1812V25.8738Z" fill="#3B2027"/>
<path d="M21.1812 32.9294H23.5277V37.638H21.1812V32.9294Z" fill="#3B2027"/>
<path d="M23.5276 2.34644H25.8742V4.69301H23.5276V2.34644Z" fill="#3B2027"/>
<path d="M23.5276 14.1106H25.8742V16.4572H23.5276V14.1106Z" fill="#3B2027"/>
<path d="M25.8738 4.69312H28.2358V14.1103H25.8738V4.69312Z" fill="#3B2027"/>
<path d="M25.8738 16.4568H37.6375V18.8188H25.8738V16.4568Z" fill="#3B2027"/>
<path d="M28.2365 42.3464H25.8745V44.693H14.1262V47.0396H32.9451V44.693H28.2365V42.3464Z" fill="#3B2027"/>
<path d="M23.5276 37.6379V42.3465H25.8742V39.9845H35.2913V42.3465H37.6379V37.6379H23.5276Z" fill="#3B2027"/>
<path d="M32.9446 42.3464H35.2912V44.693H32.9446V42.3464Z" fill="#3B2027"/>
<path d="M37.6379 23.512H25.8742V18.8188H23.5276V25.874H37.6379V30.5826H23.5276V32.9291H37.6379V37.6377H39.9999V18.8188H37.6379V23.512Z" fill="#3B2027"/>
</svg>
