<svg width="40" height="42" viewBox="0 0 40 42" fill="none" xmlns="http://www.w3.org/2000/svg">
<path d="M38.0049 23.9973H40.0003V28.0013H38.0049V23.9973Z" fill="#3B2027"/>
<path d="M3.99072 17.9978V42.0083H38.0045V34.0004H35.996V39.9998H5.99926V17.9978H3.99072Z" fill="#3B2027"/>
<path d="M35.9956 28.0015H38.0041V30.01H35.9956V28.0015Z" fill="#3B2027"/>
<path d="M34.001 22.0017H38.0049V23.9971H34.001V22.0017Z" fill="#3B2027"/>
<path d="M34.001 30.01H35.9964V32.0054H34.001V30.01Z" fill="#3B2027"/>
<path d="M34.001 26.0061H35.9964V28.0015H34.001V26.0061Z" fill="#3B2027"/>
<path d="M32.0054 32.0054H34.0008V34.0008H32.0054V32.0054Z" fill="#3B2027"/>
<path d="M32.0054 23.9973H34.0008V26.0058H32.0054V23.9973Z" fill="#3B2027"/>
<path d="M29.9966 34.0007H32.0051V36.0093H29.9966V34.0007Z" fill="#3B2027"/>
<path d="M29.9966 26.0061H32.0051V28.0015H29.9966V26.0061Z" fill="#3B2027"/>
<path d="M28.0015 32.0054H29.9969V34.0008H28.0015V32.0054Z" fill="#3B2027"/>
<path d="M28.0015 28.0015H29.9969V30.01H28.0015V28.0015Z" fill="#3B2027"/>
<path d="M25.9925 32.0054H23.9971V38.0047H29.9964V36.0093H25.9925V32.0054Z" fill="#3B2027"/>
<path d="M25.9927 30.01H28.0012V32.0054H25.9927V30.01Z" fill="#3B2027"/>
<path d="M16.0024 16.0024H29.9965V17.9978H16.0024V16.0024Z" fill="#3B2027"/>
<path d="M9.99023 23.9973H25.9929V26.0058H9.99023V23.9973Z" fill="#3B2027"/>
<path d="M9.99023 32.0054H19.9935V34.0008H9.99023V32.0054Z" fill="#3B2027"/>
<path d="M3.99072 0V1.99541H25.9927V11.9987H35.996V20.0066H38.0045V10.0033H35.996V7.99475H34.0006V5.99934H32.0052V4.00394H29.9966V1.99541H28.0012V0L3.99072 0Z" fill="#3B2027"/>
<path d="M3.99081 7.99472H1.99541V10.0032H0V11.9987H1.99541V16.0026H5.99934V11.9987H7.99475V16.0026H11.9987V11.9987H13.9941V10.0032H11.9987V7.99472H9.99015V5.99931H7.99475V4.00391H5.99934V5.99931H3.99081V7.99472Z" fill="#3B2027"/>
</svg>
