<svg width="40" height="42" fill="none" xmlns="http://www.w3.org/2000/svg"><path d="M38.005 23.997H40v4.004h-1.995v-4.004zM3.99 17.998v24.01h34.014V34h-2.008v6H5.999V17.998H3.991zm32.006 10.004h2.008v2.008h-2.008v-2.009zm-1.995-6h4.004v1.995H34v-1.995z" fill="#3B2027"/><path d="M34.001 30.01h1.995v1.995h-1.995V30.01zm0-4.004h1.995v1.995h-1.995v-1.995zm-1.996 5.999h1.996v1.996h-1.996v-1.996zm0-8.008h1.996v2.009h-1.996v-2.009zM29.997 34h2.008v2.01h-2.008V34zm0-7.994h2.008v1.995h-2.008v-1.995zm-1.995 5.999h1.995v1.996h-1.995v-1.996zm0-4.003h1.995v2.008h-1.995v-2.009zm-2.01 4.003h-1.995v6h6v-1.996h-4.005v-4.004zm.001-1.995H28v1.995h-2.008V30.01zm-9.991-14.008h13.995v1.996H16.002v-1.996zM9.99 23.997h16.003v2.009H9.99v-2.009zm0 8.008h10.004v1.996H9.99v-1.996z" fill="#3B2027"/><path d="M3.99 0v1.995h22.003V12h10.003v8.008h2.008V10.003h-2.008V7.995h-1.995V5.999h-1.996V4.004h-2.008V1.995H28V0H3.991z" fill="#3B2027"/><path d="M3.99 7.995H1.996v2.008H0V12h1.995v4.004H6V12h1.996v4.004H12V12h1.995v-1.996H12V7.995H9.99V5.999H7.995V4.004H5.999v1.995H3.991v1.996z" fill="#3B2027"/></svg>