<svg width="45" height="45" fill="none" xmlns="http://www.w3.org/2000/svg"><path d="M40.71 12.853H45v2.152h-4.29v-2.152zm0 17.142H45v2.152h-4.29v-2.152zm0-8.564H45v2.138h-4.29V21.43zm-2.137 17.143h2.138v2.137h-2.138v-2.137zm0-34.284h2.138v2.137h-2.138V4.289zm-2.138 32.132h2.138v2.151h-2.138v-2.151zm0-19.28h2.138v10.716h-2.138V17.142zm0-10.715h2.138v2.137h-2.138V6.427z" fill="#3B2027"/><path d="M34.284 27.858h2.152v4.289h-2.152v-4.29zm0-15.005h2.152v4.29h-2.152v-4.29zm-2.137-2.137h2.137v2.137h-2.137v-2.137zM30.01 40.71h2.137V45H30.01v-4.29zm-.001-6.426h-2.152v2.138h4.29v-2.138h2.137v-2.137h-4.275v2.137zM30.01 0h2.137v4.29H30.01V0zm-2.153 29.995h2.152v2.152h-2.152v-2.152zm0-21.431h4.29v2.152h-4.29V8.564zM17.143 36.422h10.715v2.151H17.143v-2.151zm4.289 4.288h2.137V45h-2.137v-4.29zm0-40.71h2.137v4.29h-2.137V0z" fill="#3B2027"/><path d="M17.143 27.858h10.715v2.137H17.143v-2.137zm0-21.431h10.715v2.137H17.143V6.427zm-2.138 27.857v-2.137h-4.29v2.137h2.152v2.138h4.275v-2.138h-2.137zm0-4.289h2.137v2.152h-2.137v-2.152z" fill="#3B2027"/><path d="M17.142 19.28h2.152v-2.138h6.427v2.138h2.137v8.578h2.152V15.005h-2.152v-2.152H17.142v2.152h-2.137v12.853h2.137V19.28zM12.867 8.564h4.275v2.152h-4.275V8.564zm0 32.146h2.138V45h-2.138v-4.29zm0-40.71h2.138v4.29h-2.138V0zm-2.151 10.716h2.151v2.137h-2.151v-2.137zM8.578 27.858h2.138v4.289H8.578v-4.29zm0-15.005h2.138v4.29H8.578v-4.29zM6.427 36.422h2.151v2.151H6.427v-2.151zm0-19.28h2.151v10.716H6.427V17.142zm0-10.715h2.151v2.137H6.427V6.427zM4.29 38.574h2.137v2.137H4.289v-2.137zm0-34.284h2.137v2.137H4.289V4.289zM0 29.995h4.29v2.152H0v-2.152zm0-8.564h4.29v2.138H0V21.43zm0-8.578h4.29v2.152H0v-2.152z" fill="#3B2027"/></svg>