<svg width="40" height="45" fill="none" xmlns="http://www.w3.org/2000/svg"><path d="M37.9 23.157H40v10.528h-2.1V23.157zM35.786 2.1H37.9v8.429h-2.114V2.1zm0 21.057H37.9v-2.1h-2.114v-2.114h-2.1V40h2.1v-4.214H37.9v-2.1h-2.114v-10.53zm-2.1-12.629h2.1v2.1h-2.1v-2.1zm0-10.528h2.1v2.1h-2.1V0zm-2.114 40h2.114v2.114h-2.114V40zm0-23.157h2.114v2.1h-2.114v-2.1zm-2.1 6.314h2.1v4.214h-2.1v-4.214zm0-18.943h2.1v4.2h-2.1v-4.2zm-21.057 37.9h23.157v2.1H8.415v-2.1zm16.842-21.057h4.214v2.1h-4.214v-2.1zm2.115-12.642h2.1v2.114h-2.1V8.415zm0-6.315h2.1v2.114h-2.1V2.1zm-2.115 25.271h4.214v2.1h-4.214v-2.1zm-12.629 6.315v2.1h2.1V37.9h2.115V40h6.314v-2.1h2.1v-2.114h2.114v-2.1H12.628zm10.529-10.529h2.1v4.214h-2.1v-4.214zm-6.314 8.428h6.314v-2.114h-2.114v-2.1h-2.1v2.1h-2.1v2.114zm-2.114-8.428h2.114v4.214h-2.114v-4.214zm-4.201 4.214h4.2v2.1h-4.2v-2.1zm0-6.314h4.2v2.1h-4.2v-2.1z" fill="#3B2027"/><path d="M31.572 16.843v-2.1H21.043v-4.215h2.114V8.415h2.1V2.1h-2.1V0h-6.314v2.1h-2.114v6.315h2.114v2.114h2.1v4.214H8.415v2.1h23.157z" fill="#3B2027"/><path d="M10.528 8.415h2.1v2.114h-2.1V8.415zm0-6.315h2.1v2.114h-2.1V2.1zM8.415 23.157h2.114v4.214H8.415v-4.214zm0-18.943h2.114v4.2H8.415v-4.2zM6.314 40h2.1v2.114h-2.1V40zm0-23.157h2.1v2.1h-2.1v-2.1zm0 2.1H4.2v2.114H2.1v2.1h2.1v10.528H2.1v2.1h2.1V40h2.114V18.943zM4.2 10.528h2.115v2.1H4.2v-2.1zM4.2 0h2.115v2.1H4.2V0zM2.1 2.1h2.1v8.429H2.1V2.1zM0 23.157h2.1v10.528H0V23.157z" fill="#3B2027"/></svg>